# xmcd
#
# Track frame offsets: 
#        150
#        12445
#        25387
#        37812
#        50512
#        60755
#        69992
#        83360
#        93052
#        104904
#        115605
#        124427
#        136620
#        150417
#        163045
#        176475
#        185932
#
# Disc length: 2636 seconds
#
# Revision: 0
# Processed by: cddbd v1.5.2PL0 Copyright (c) Steve Scherf et al.
# Submitted via: ExactAudioCopy v0.99pb5
#
DISCID=d00a4a11
DTITLE=Various Artist - Sounds Of The Sixties - Country Style - CD 1
DYEAR=2001
DGENRE=Oldies
TTITLE0=Tammy Wynette - Stand by your man
TTITLE1=Patsy Cline - I fall to pieces
TTITLE2=Merle Haggard And The Strangers - Okie from Muskogee
TTITLE3=Johnny Horton - North to Alaska
TTITLE4=Roger Miller - Engine engine No. 9
TTITLE5=Marty Robbins - Ruby Ann
TTITLE6=Leapy Lee - Little arrows
TTITLE7=Lester Flatt and Earl Scruggs - Foggy Mountain breakdown
TTITLE8=Johnny Cash - Ring of fire
TTITLE9=Springfields - Come on home
TTITLE10=Frank Ifield - Call her your sweetheart
TTITLE11=Burl Ives - Funny way of laughin'
TTITLE12=Johnny cash - It ain't me babe
TTITLE13=Jim Reeves - Not until next time
TTITLE14=Tammy Wynette - D.I.V.O.R.C.E
TTITLE15=Jim Reeves - There's a heartache following me
TTITLE16=Skeeter Davis - The end of the world
EXTD=
EXTT0=
EXTT1=
EXTT2=
EXTT3=
EXTT4=
EXTT5=
EXTT6=
EXTT7=
EXTT8=
EXTT9=
EXTT10=
EXTT11=
EXTT12=
EXTT13=
EXTT14=
EXTT15=
EXTT16=
PLAYORDER=
